<?xml version="1.0" encoding="UTF-8" standalone="no"?>
<svg
   xmlns:dc="http://purl.org/dc/elements/1.1/"
   xmlns:cc="http://creativecommons.org/ns#"
   xmlns:rdf="http://www.w3.org/1999/02/22-rdf-syntax-ns#"
   xmlns:svg="http://www.w3.org/2000/svg"
   xmlns="http://www.w3.org/2000/svg"
   viewBox="0 0 629.23596 613.70069"
   height="613.70068"
   width="629.23596"
   xml:space="preserve"
   id="svg2"
   version="1.1"><metadata
     id="metadata8"><rdf:RDF><cc:Work
         rdf:about=""><dc:format>image/svg+xml</dc:format><dc:type
           rdf:resource="http://purl.org/dc/dcmitype/StillImage" /></cc:Work></rdf:RDF></metadata><defs
     id="defs6" /><g
     transform="matrix(1.3333333,0,0,-1.3333333,0,613.69998)"
     id="g10"><g
       transform="scale(0.1)"
       id="g12"><path
         id="path14"
         style="fill:#1b1817;fill-opacity:1;fill-rule:evenodd;stroke:none"
         d="M 2359.64,4602.75 C 1056.62,4602.75 0,3546.36 0,2243.11 0,1200.57 676.102,316.09 1613.67,4.05859 1731.58,-17.7695 1774.89,55.2695 1774.89,117.582 c 0,56.25 -2.18,242.16 -3.2,439.316 C 1115.24,414.152 976.719,835.309 976.719,835.309 869.379,1108.03 714.723,1180.58 714.723,1180.58 c -214.114,146.45 16.136,143.44 16.136,143.44 236.93,-16.64 361.711,-243.19 361.711,-243.19 210.44,-360.721 552.01,-256.432 686.67,-196.139 21.18,152.489 82.31,256.619 149.81,315.539 -524.11,59.64 -1075.089,262 -1075.089,1166.14 0,257.61 92.191,468.11 243.149,633.36 -24.5,59.45 -105.278,299.43 22.86,624.47 0,0 198.16,63.39 649.04,-241.91 188.24,52.3 390.1,78.51 590.63,79.43 200.52,-0.92 402.54,-27.13 591.12,-79.43 450.39,305.3 648.24,241.91 648.24,241.91 128.44,-325.04 47.66,-565.02 23.17,-624.47 151.3,-165.25 242.84,-375.75 242.84,-633.36 0,-906.32 -552.01,-1105.85 -1077.46,-1164.27 84.64,-73.23 160.04,-216.819 160.04,-436.959 0,-315.731 -2.71,-569.832 -2.71,-647.559 0,-62.8125 42.47,-136.3828 162.06,-113.22262 C 4044.01,316.738 4719.27,1200.92 4719.27,2243.11 c 0,1303.25 -1056.47,2359.64 -2359.63,2359.64" /><path
         id="path16"
         style="fill:#1b1817;fill-opacity:1;fill-rule:nonzero;stroke:none"
         d="m 893.723,1214.84 c -5.192,-11.75 -23.66,-15.26 -40.446,-7.21 -17.136,7.71 -26.714,23.7 -21.179,35.45 5.074,12.06 23.543,15.42 40.636,7.37 17.133,-7.71 26.903,-23.85 20.989,-35.61 v 0" /><path
         id="path18"
         style="fill:#1b1817;fill-opacity:1;fill-rule:nonzero;stroke:none"
         d="m 989.313,1108.23 c -11.258,-10.42 -33.278,-5.58 -48.196,10.91 -15.457,16.45 -18.316,38.46 -6.91,49.03 11.602,10.42 32.934,5.54 48.387,-10.91 15.453,-16.64 18.466,-38.46 6.719,-49.03 v 0" /><path
         id="path20"
         style="fill:#1b1817;fill-opacity:1;fill-rule:nonzero;stroke:none"
         d="m 1082.34,972.34 c -14.46,-10.07 -38.12,-0.641 -52.73,20.34 -14.47,20.99 -14.47,46.17 0.34,56.25 14.62,10.07 37.93,0.99 52.74,-19.81 14.42,-21.33 14.42,-46.511 -0.35,-56.78 v 0" /><path
         id="path22"
         style="fill:#1b1817;fill-opacity:1;fill-rule:nonzero;stroke:none"
         d="m 1209.79,841.039 c -12.93,-14.269 -40.48,-10.418 -60.63,9.043 -20.65,19 -26.37,46.02 -13.43,60.289 13.12,14.27 40.83,10.27 61.13,-9.039 20.49,-19 26.71,-46.172 12.93,-60.293 v 0" /><path
         id="path24"
         style="fill:#1b1817;fill-opacity:1;fill-rule:nonzero;stroke:none"
         d="m 1385.63,764.801 c -5.72,-18.469 -32.24,-26.871 -58.96,-19.012 -26.71,8.09 -44.15,29.731 -38.77,48.391 5.54,18.621 32.21,27.359 59.11,18.968 26.68,-8.058 44.15,-29.539 38.62,-48.347 v 0" /><path
         id="path26"
         style="fill:#1b1817;fill-opacity:1;fill-rule:nonzero;stroke:none"
         d="m 1578.75,750.68 c 0.65,-19.461 -22.01,-35.598 -50.06,-35.95 -28.2,-0.648 -51.06,15.11 -51.36,34.27 0,19.648 22.16,35.602 50.36,36.102 28.05,0.527 51.06,-15.114 51.06,-34.422 v 0" /><path
         id="path28"
         style="fill:#1b1817;fill-opacity:1;fill-rule:nonzero;stroke:none"
         d="m 1758.44,781.238 c 3.36,-18.957 -16.14,-38.457 -44,-43.648 -27.39,-5.039 -52.73,6.711 -56.24,25.531 -3.39,19.461 16.45,38.961 43.81,44 27.89,4.84 52.89,-6.57 56.43,-25.883 v 0" /></g></g></svg>